<?xml version="1.0" encoding="utf-8" standalone="no"?>
<!DOCTYPE svg PUBLIC "-//W3C//DTD SVG 1.1//EN"
  "http://www.w3.org/Graphics/SVG/1.1/DTD/svg11.dtd">
<svg xmlns:xlink="http://www.w3.org/1999/xlink" width="732.578125pt" height="367.405341pt" viewBox="0 0 732.578125 367.405341" xmlns="http://www.w3.org/2000/svg" version="1.1">
 <metadata>
  <rdf:RDF xmlns:dc="http://purl.org/dc/elements/1.1/" xmlns:cc="http://creativecommons.org/ns#" xmlns:rdf="http://www.w3.org/1999/02/22-rdf-syntax-ns#">
   <cc:Work>
    <dc:type rdf:resource="http://purl.org/dc/dcmitype/StillImage"/>
    <dc:date>2024-05-21T18:53:15.886046</dc:date>
    <dc:format>image/svg+xml</dc:format>
    <dc:creator>
     <cc:Agent>
      <dc:title>Matplotlib v3.5.2, https://matplotlib.org/</dc:title>
     </cc:Agent>
    </dc:creator>
   </cc:Work>
  </rdf:RDF>
 </metadata>
 <defs>
  <style type="text/css">*{stroke-linejoin: round; stroke-linecap: butt}</style>
 </defs>
 <g id="figure_1">
  <g id="patch_1">
   <path d="M 0 367.405341 
L 732.578125 367.405341 
L 732.578125 0 
L 0 0 
z
" style="fill: #ffffff"/>
  </g>
  <g id="axes_1">
   <g id="patch_2">
    <path d="M 55.778125 162.087216 
L 725.378125 162.087216 
L 725.378125 10.887216 
L 55.778125 10.887216 
z
" style="fill: #ffffff"/>
   </g>
   <g id="matplotlib.axis_1">
    <g id="xtick_1">
     <g id="line2d_1">
      <path d="M 86.363322 162.087216 
L 86.363322 10.887216 
" clip-path="url(#p7c1d6668c1)" style="fill: none; stroke: #b0b0b0; stroke-width: 0.8; stroke-linecap: square"/>
     </g>
     <g id="line2d_2">
      <defs>
       <path id="m6c4dae49cb" d="M 0 0 
L 0 3.5 
" style="stroke: #000000; stroke-width: 0.8"/>
      </defs>
      <g>
       <use xlink:href="#m6c4dae49cb" x="86.363322" y="162.087216" style="stroke: #000000; stroke-width: 0.8"/>
      </g>
     </g>
     <g id="text_1">
      <!-- 0.60 -->
      <g transform="translate(75.230509 176.685654)scale(0.1 -0.1)">
       <defs>
        <path id="DejaVuSans-30" d="M 2034 4250 
Q 1547 4250 1301 3770 
Q 1056 3291 1056 2328 
Q 1056 1369 1301 889 
Q 1547 409 2034 409 
Q 2525 409 2770 889 
Q 3016 1369 3016 2328 
Q 3016 3291 2770 3770 
Q 2525 4250 2034 4250 
z
M 2034 4750 
Q 2819 4750 3233 4129 
Q 3647 3509 3647 2328 
Q 3647 1150 3233 529 
Q 2819 -91 2034 -91 
Q 1250 -91 836 529 
Q 422 1150 422 2328 
Q 422 3509 836 4129 
Q 1250 4750 2034 4750 
z
" transform="scale(0.015625)"/>
        <path id="DejaVuSans-2e" d="M 684 794 
L 1344 794 
L 1344 0 
L 684 0 
L 684 794 
z
" transform="scale(0.015625)"/>
        <path id="DejaVuSans-36" d="M 2113 2584 
Q 1688 2584 1439 2293 
Q 1191 2003 1191 1497 
Q 1191 994 1439 701 
Q 1688 409 2113 409 
Q 2538 409 2786 701 
Q 3034 994 3034 1497 
Q 3034 2003 2786 2293 
Q 2538 2584 2113 2584 
z
M 3366 4563 
L 3366 3988 
Q 3128 4100 2886 4159 
Q 2644 4219 2406 4219 
Q 1781 4219 1451 3797 
Q 1122 3375 1075 2522 
Q 1259 2794 1537 2939 
Q 1816 3084 2150 3084 
Q 2853 3084 3261 2657 
Q 3669 2231 3669 1497 
Q 3669 778 3244 343 
Q 2819 -91 2113 -91 
Q 1303 -91 875 529 
Q 447 1150 447 2328 
Q 447 3434 972 4092 
Q 1497 4750 2381 4750 
Q 2619 4750 2861 4703 
Q 3103 4656 3366 4563 
z
" transform="scale(0.015625)"/>
       </defs>
       <use xlink:href="#DejaVuSans-30"/>
       <use xlink:href="#DejaVuSans-2e" x="63.623047"/>
       <use xlink:href="#DejaVuSans-36" x="95.410156"/>
       <use xlink:href="#DejaVuSans-30" x="159.033203"/>
      </g>
     </g>
    </g>
    <g id="xtick_2">
     <g id="line2d_3">
      <path d="M 208.287376 162.087216 
L 208.287376 10.887216 
" clip-path="url(#p7c1d6668c1)" style="fill: none; stroke: #b0b0b0; stroke-width: 0.8; stroke-linecap: square"/>
     </g>
     <g id="line2d_4">
      <g>
       <use xlink:href="#m6c4dae49cb" x="208.287376" y="162.087216" style="stroke: #000000; stroke-width: 0.8"/>
      </g>
     </g>
     <g id="text_2">
      <!-- 0.62 -->
      <g transform="translate(197.154563 176.685654)scale(0.1 -0.1)">
       <defs>
        <path id="DejaVuSans-32" d="M 1228 531 
L 3431 531 
L 3431 0 
L 469 0 
L 469 531 
Q 828 903 1448 1529 
Q 2069 2156 2228 2338 
Q 2531 2678 2651 2914 
Q 2772 3150 2772 3378 
Q 2772 3750 2511 3984 
Q 2250 4219 1831 4219 
Q 1534 4219 1204 4116 
Q 875 4013 500 3803 
L 500 4441 
Q 881 4594 1212 4672 
Q 1544 4750 1819 4750 
Q 2544 4750 2975 4387 
Q 3406 4025 3406 3419 
Q 3406 3131 3298 2873 
Q 3191 2616 2906 2266 
Q 2828 2175 2409 1742 
Q 1991 1309 1228 531 
z
" transform="scale(0.015625)"/>
       </defs>
       <use xlink:href="#DejaVuSans-30"/>
       <use xlink:href="#DejaVuSans-2e" x="63.623047"/>
       <use xlink:href="#DejaVuSans-36" x="95.410156"/>
       <use xlink:href="#DejaVuSans-32" x="159.033203"/>
      </g>
     </g>
    </g>
    <g id="xtick_3">
     <g id="line2d_5">
      <path d="M 330.21143 162.087216 
L 330.21143 10.887216 
" clip-path="url(#p7c1d6668c1)" style="fill: none; stroke: #b0b0b0; stroke-width: 0.8; stroke-linecap: square"/>
     </g>
     <g id="line2d_6">
      <g>
       <use xlink:href="#m6c4dae49cb" x="330.21143" y="162.087216" style="stroke: #000000; stroke-width: 0.8"/>
      </g>
     </g>
     <g id="text_3">
      <!-- 0.64 -->
      <g transform="translate(319.078618 176.685654)scale(0.1 -0.1)">
       <defs>
        <path id="DejaVuSans-34" d="M 2419 4116 
L 825 1625 
L 2419 1625 
L 2419 4116 
z
M 2253 4666 
L 3047 4666 
L 3047 1625 
L 3713 1625 
L 3713 1100 
L 3047 1100 
L 3047 0 
L 2419 0 
L 2419 1100 
L 313 1100 
L 313 1709 
L 2253 4666 
z
" transform="scale(0.015625)"/>
       </defs>
       <use xlink:href="#DejaVuSans-30"/>
       <use xlink:href="#DejaVuSans-2e" x="63.623047"/>
       <use xlink:href="#DejaVuSans-36" x="95.410156"/>
       <use xlink:href="#DejaVuSans-34" x="159.033203"/>
      </g>
     </g>
    </g>
    <g id="xtick_4">
     <g id="line2d_7">
      <path d="M 452.135484 162.087216 
L 452.135484 10.887216 
" clip-path="url(#p7c1d6668c1)" style="fill: none; stroke: #b0b0b0; stroke-width: 0.8; stroke-linecap: square"/>
     </g>
     <g id="line2d_8">
      <g>
       <use xlink:href="#m6c4dae49cb" x="452.135484" y="162.087216" style="stroke: #000000; stroke-width: 0.8"/>
      </g>
     </g>
     <g id="text_4">
      <!-- 0.66 -->
      <g transform="translate(441.002672 176.685654)scale(0.1 -0.1)">
       <use xlink:href="#DejaVuSans-30"/>
       <use xlink:href="#DejaVuSans-2e" x="63.623047"/>
       <use xlink:href="#DejaVuSans-36" x="95.410156"/>
       <use xlink:href="#DejaVuSans-36" x="159.033203"/>
      </g>
     </g>
    </g>
    <g id="xtick_5">
     <g id="line2d_9">
      <path d="M 574.059539 162.087216 
L 574.059539 10.887216 
" clip-path="url(#p7c1d6668c1)" style="fill: none; stroke: #b0b0b0; stroke-width: 0.8; stroke-linecap: square"/>
     </g>
     <g id="line2d_10">
      <g>
       <use xlink:href="#m6c4dae49cb" x="574.059539" y="162.087216" style="stroke: #000000; stroke-width: 0.8"/>
      </g>
     </g>
     <g id="text_5">
      <!-- 0.68 -->
      <g transform="translate(562.926726 176.685654)scale(0.1 -0.1)">
       <defs>
        <path id="DejaVuSans-38" d="M 2034 2216 
Q 1584 2216 1326 1975 
Q 1069 1734 1069 1313 
Q 1069 891 1326 650 
Q 1584 409 2034 409 
Q 2484 409 2743 651 
Q 3003 894 3003 1313 
Q 3003 1734 2745 1975 
Q 2488 2216 2034 2216 
z
M 1403 2484 
Q 997 2584 770 2862 
Q 544 3141 544 3541 
Q 544 4100 942 4425 
Q 1341 4750 2034 4750 
Q 2731 4750 3128 4425 
Q 3525 4100 3525 3541 
Q 3525 3141 3298 2862 
Q 3072 2584 2669 2484 
Q 3125 2378 3379 2068 
Q 3634 1759 3634 1313 
Q 3634 634 3220 271 
Q 2806 -91 2034 -91 
Q 1263 -91 848 271 
Q 434 634 434 1313 
Q 434 1759 690 2068 
Q 947 2378 1403 2484 
z
M 1172 3481 
Q 1172 3119 1398 2916 
Q 1625 2713 2034 2713 
Q 2441 2713 2670 2916 
Q 2900 3119 2900 3481 
Q 2900 3844 2670 4047 
Q 2441 4250 2034 4250 
Q 1625 4250 1398 4047 
Q 1172 3844 1172 3481 
z
" transform="scale(0.015625)"/>
       </defs>
       <use xlink:href="#DejaVuSans-30"/>
       <use xlink:href="#DejaVuSans-2e" x="63.623047"/>
       <use xlink:href="#DejaVuSans-36" x="95.410156"/>
       <use xlink:href="#DejaVuSans-38" x="159.033203"/>
      </g>
     </g>
    </g>
    <g id="xtick_6">
     <g id="line2d_11">
      <path d="M 695.983593 162.087216 
L 695.983593 10.887216 
" clip-path="url(#p7c1d6668c1)" style="fill: none; stroke: #b0b0b0; stroke-width: 0.8; stroke-linecap: square"/>
     </g>
     <g id="line2d_12">
      <g>
       <use xlink:href="#m6c4dae49cb" x="695.983593" y="162.087216" style="stroke: #000000; stroke-width: 0.8"/>
      </g>
     </g>
     <g id="text_6">
      <!-- 0.70 -->
      <g transform="translate(684.85078 176.685654)scale(0.1 -0.1)">
       <defs>
        <path id="DejaVuSans-37" d="M 525 4666 
L 3525 4666 
L 3525 4397 
L 1831 0 
L 1172 0 
L 2766 4134 
L 525 4134 
L 525 4666 
z
" transform="scale(0.015625)"/>
       </defs>
       <use xlink:href="#DejaVuSans-30"/>
       <use xlink:href="#DejaVuSans-2e" x="63.623047"/>
       <use xlink:href="#DejaVuSans-37" x="95.410156"/>
       <use xlink:href="#DejaVuSans-30" x="159.033203"/>
      </g>
     </g>
    </g>
   </g>
   <g id="matplotlib.axis_2">
    <g id="ytick_1">
     <g id="line2d_13">
      <path d="M 55.778125 151.736704 
L 725.378125 151.736704 
" clip-path="url(#p7c1d6668c1)" style="fill: none; stroke: #b0b0b0; stroke-width: 0.8; stroke-linecap: square"/>
     </g>
     <g id="line2d_14">
      <defs>
       <path id="m21ecce3f85" d="M 0 0 
L -3.5 0 
" style="stroke: #000000; stroke-width: 0.8"/>
      </defs>
      <g>
       <use xlink:href="#m21ecce3f85" x="55.778125" y="151.736704" style="stroke: #000000; stroke-width: 0.8"/>
      </g>
     </g>
     <g id="text_7">
      <!-- −0.3 -->
      <g transform="translate(24.495313 155.535923)scale(0.1 -0.1)">
       <defs>
        <path id="DejaVuSans-2212" d="M 678 2272 
L 4684 2272 
L 4684 1741 
L 678 1741 
L 678 2272 
z
" transform="scale(0.015625)"/>
        <path id="DejaVuSans-33" d="M 2597 2516 
Q 3050 2419 3304 2112 
Q 3559 1806 3559 1356 
Q 3559 666 3084 287 
Q 2609 -91 1734 -91 
Q 1441 -91 1130 -33 
Q 819 25 488 141 
L 488 750 
Q 750 597 1062 519 
Q 1375 441 1716 441 
Q 2309 441 2620 675 
Q 2931 909 2931 1356 
Q 2931 1769 2642 2001 
Q 2353 2234 1838 2234 
L 1294 2234 
L 1294 2753 
L 1863 2753 
Q 2328 2753 2575 2939 
Q 2822 3125 2822 3475 
Q 2822 3834 2567 4026 
Q 2313 4219 1838 4219 
Q 1578 4219 1281 4162 
Q 984 4106 628 3988 
L 628 4550 
Q 988 4650 1302 4700 
Q 1616 4750 1894 4750 
Q 2613 4750 3031 4423 
Q 3450 4097 3450 3541 
Q 3450 3153 3228 2886 
Q 3006 2619 2597 2516 
z
" transform="scale(0.015625)"/>
       </defs>
       <use xlink:href="#DejaVuSans-2212"/>
       <use xlink:href="#DejaVuSans-30" x="83.789062"/>
       <use xlink:href="#DejaVuSans-2e" x="147.412109"/>
       <use xlink:href="#DejaVuSans-33" x="179.199219"/>
      </g>
     </g>
    </g>
    <g id="ytick_2">
     <g id="line2d_15">
      <path d="M 55.778125 123.589207 
L 725.378125 123.589207 
" clip-path="url(#p7c1d6668c1)" style="fill: none; stroke: #b0b0b0; stroke-width: 0.8; stroke-linecap: square"/>
     </g>
     <g id="line2d_16">
      <g>
       <use xlink:href="#m21ecce3f85" x="55.778125" y="123.589207" style="stroke: #000000; stroke-width: 0.8"/>
      </g>
     </g>
     <g id="text_8">
      <!-- −0.2 -->
      <g transform="translate(24.495313 127.388426)scale(0.1 -0.1)">
       <use xlink:href="#DejaVuSans-2212"/>
       <use xlink:href="#DejaVuSans-30" x="83.789062"/>
       <use xlink:href="#DejaVuSans-2e" x="147.412109"/>
       <use xlink:href="#DejaVuSans-32" x="179.199219"/>
      </g>
     </g>
    </g>
    <g id="ytick_3">
     <g id="line2d_17">
      <path d="M 55.778125 95.44171 
L 725.378125 95.44171 
" clip-path="url(#p7c1d6668c1)" style="fill: none; stroke: #b0b0b0; stroke-width: 0.8; stroke-linecap: square"/>
     </g>
     <g id="line2d_18">
      <g>
       <use xlink:href="#m21ecce3f85" x="55.778125" y="95.44171" style="stroke: #000000; stroke-width: 0.8"/>
      </g>
     </g>
     <g id="text_9">
      <!-- −0.1 -->
      <g transform="translate(24.495313 99.240929)scale(0.1 -0.1)">
       <defs>
        <path id="DejaVuSans-31" d="M 794 531 
L 1825 531 
L 1825 4091 
L 703 3866 
L 703 4441 
L 1819 4666 
L 2450 4666 
L 2450 531 
L 3481 531 
L 3481 0 
L 794 0 
L 794 531 
z
" transform="scale(0.015625)"/>
       </defs>
       <use xlink:href="#DejaVuSans-2212"/>
       <use xlink:href="#DejaVuSans-30" x="83.789062"/>
       <use xlink:href="#DejaVuSans-2e" x="147.412109"/>
       <use xlink:href="#DejaVuSans-31" x="179.199219"/>
      </g>
     </g>
    </g>
    <g id="ytick_4">
     <g id="line2d_19">
      <path d="M 55.778125 67.294213 
L 725.378125 67.294213 
" clip-path="url(#p7c1d6668c1)" style="fill: none; stroke: #b0b0b0; stroke-width: 0.8; stroke-linecap: square"/>
     </g>
     <g id="line2d_20">
      <g>
       <use xlink:href="#m21ecce3f85" x="55.778125" y="67.294213" style="stroke: #000000; stroke-width: 0.8"/>
      </g>
     </g>
     <g id="text_10">
      <!-- 0.0 -->
      <g transform="translate(32.875 71.093432)scale(0.1 -0.1)">
       <use xlink:href="#DejaVuSans-30"/>
       <use xlink:href="#DejaVuSans-2e" x="63.623047"/>
       <use xlink:href="#DejaVuSans-30" x="95.410156"/>
      </g>
     </g>
    </g>
    <g id="ytick_5">
     <g id="line2d_21">
      <path d="M 55.778125 39.146716 
L 725.378125 39.146716 
" clip-path="url(#p7c1d6668c1)" style="fill: none; stroke: #b0b0b0; stroke-width: 0.8; stroke-linecap: square"/>
     </g>
     <g id="line2d_22">
      <g>
       <use xlink:href="#m21ecce3f85" x="55.778125" y="39.146716" style="stroke: #000000; stroke-width: 0.8"/>
      </g>
     </g>
     <g id="text_11">
      <!-- 0.1 -->
      <g transform="translate(32.875 42.945935)scale(0.1 -0.1)">
       <use xlink:href="#DejaVuSans-30"/>
       <use xlink:href="#DejaVuSans-2e" x="63.623047"/>
       <use xlink:href="#DejaVuSans-31" x="95.410156"/>
      </g>
     </g>
    </g>
    <g id="ytick_6">
     <g id="line2d_23">
      <path d="M 55.778125 10.999219 
L 725.378125 10.999219 
" clip-path="url(#p7c1d6668c1)" style="fill: none; stroke: #b0b0b0; stroke-width: 0.8; stroke-linecap: square"/>
     </g>
     <g id="line2d_24">
      <g>
       <use xlink:href="#m21ecce3f85" x="55.778125" y="10.999219" style="stroke: #000000; stroke-width: 0.8"/>
      </g>
     </g>
     <g id="text_12">
      <!-- 0.2 -->
      <g transform="translate(32.875 14.798437)scale(0.1 -0.1)">
       <use xlink:href="#DejaVuSans-30"/>
       <use xlink:href="#DejaVuSans-2e" x="63.623047"/>
       <use xlink:href="#DejaVuSans-32" x="95.410156"/>
      </g>
     </g>
    </g>
    <g id="text_13">
     <!-- actual -->
     <g transform="translate(18.415625 101.882529)rotate(-90)scale(0.1 -0.1)">
      <defs>
       <path id="DejaVuSans-61" d="M 2194 1759 
Q 1497 1759 1228 1600 
Q 959 1441 959 1056 
Q 959 750 1161 570 
Q 1363 391 1709 391 
Q 2188 391 2477 730 
Q 2766 1069 2766 1631 
L 2766 1759 
L 2194 1759 
z
M 3341 1997 
L 3341 0 
L 2766 0 
L 2766 531 
Q 2569 213 2275 61 
Q 1981 -91 1556 -91 
Q 1019 -91 701 211 
Q 384 513 384 1019 
Q 384 1609 779 1909 
Q 1175 2209 1959 2209 
L 2766 2209 
L 2766 2266 
Q 2766 2663 2505 2880 
Q 2244 3097 1772 3097 
Q 1472 3097 1187 3025 
Q 903 2953 641 2809 
L 641 3341 
Q 956 3463 1253 3523 
Q 1550 3584 1831 3584 
Q 2591 3584 2966 3190 
Q 3341 2797 3341 1997 
z
" transform="scale(0.015625)"/>
       <path id="DejaVuSans-63" d="M 3122 3366 
L 3122 2828 
Q 2878 2963 2633 3030 
Q 2388 3097 2138 3097 
Q 1578 3097 1268 2742 
Q 959 2388 959 1747 
Q 959 1106 1268 751 
Q 1578 397 2138 397 
Q 2388 397 2633 464 
Q 2878 531 3122 666 
L 3122 134 
Q 2881 22 2623 -34 
Q 2366 -91 2075 -91 
Q 1284 -91 818 406 
Q 353 903 353 1747 
Q 353 2603 823 3093 
Q 1294 3584 2113 3584 
Q 2378 3584 2631 3529 
Q 2884 3475 3122 3366 
z
" transform="scale(0.015625)"/>
       <path id="DejaVuSans-74" d="M 1172 4494 
L 1172 3500 
L 2356 3500 
L 2356 3053 
L 1172 3053 
L 1172 1153 
Q 1172 725 1289 603 
Q 1406 481 1766 481 
L 2356 481 
L 2356 0 
L 1766 0 
Q 1100 0 847 248 
Q 594 497 594 1153 
L 594 3053 
L 172 3053 
L 172 3500 
L 594 3500 
L 594 4494 
L 1172 4494 
z
" transform="scale(0.015625)"/>
       <path id="DejaVuSans-75" d="M 544 1381 
L 544 3500 
L 1119 3500 
L 1119 1403 
Q 1119 906 1312 657 
Q 1506 409 1894 409 
Q 2359 409 2629 706 
Q 2900 1003 2900 1516 
L 2900 3500 
L 3475 3500 
L 3475 0 
L 2900 0 
L 2900 538 
Q 2691 219 2414 64 
Q 2138 -91 1772 -91 
Q 1169 -91 856 284 
Q 544 659 544 1381 
z
M 1991 3584 
L 1991 3584 
z
" transform="scale(0.015625)"/>
       <path id="DejaVuSans-6c" d="M 603 4863 
L 1178 4863 
L 1178 0 
L 603 0 
L 603 4863 
z
" transform="scale(0.015625)"/>
      </defs>
      <use xlink:href="#DejaVuSans-61"/>
      <use xlink:href="#DejaVuSans-63" x="61.279297"/>
      <use xlink:href="#DejaVuSans-74" x="116.259766"/>
      <use xlink:href="#DejaVuSans-75" x="155.46875"/>
      <use xlink:href="#DejaVuSans-61" x="218.847656"/>
      <use xlink:href="#DejaVuSans-6c" x="280.126953"/>
     </g>
    </g>
   </g>
   <g id="line2d_25">
    <path d="M 86.214489 155.214489 
L 146.491884 142.957099 
L 204.536782 130.927704 
L 260.349185 119.136494 
L 314.673257 107.433254 
L 366.764833 95.986585 
L 417.368078 84.642346 
L 466.482993 73.406039 
L 514.109576 62.284047 
L 560.247829 51.283654 
L 604.897752 40.413057 
L 648.803508 29.49435 
L 691.220935 18.716563 
L 694.941761 17.759943 
L 694.941761 17.759943 
" clip-path="url(#p7c1d6668c1)" style="fill: none; stroke: #1f77b4; stroke-width: 1.5; stroke-linecap: square"/>
   </g>
   <g id="patch_3">
    <path d="M 55.778125 162.087216 
L 55.778125 10.887216 
" style="fill: none; stroke: #000000; stroke-width: 0.8; stroke-linejoin: miter; stroke-linecap: square"/>
   </g>
   <g id="patch_4">
    <path d="M 725.378125 162.087216 
L 725.378125 10.887216 
" style="fill: none; stroke: #000000; stroke-width: 0.8; stroke-linejoin: miter; stroke-linecap: square"/>
   </g>
   <g id="patch_5">
    <path d="M 55.778125 162.087216 
L 725.378125 162.087216 
" style="fill: none; stroke: #000000; stroke-width: 0.8; stroke-linejoin: miter; stroke-linecap: square"/>
   </g>
   <g id="patch_6">
    <path d="M 55.778125 10.887216 
L 725.378125 10.887216 
" style="fill: none; stroke: #000000; stroke-width: 0.8; stroke-linejoin: miter; stroke-linecap: square"/>
   </g>
  </g>
  <g id="axes_2">
   <g id="patch_7">
    <path d="M 55.778125 343.527216 
L 725.378125 343.527216 
L 725.378125 192.327216 
L 55.778125 192.327216 
z
" style="fill: #ffffff"/>
   </g>
   <g id="matplotlib.axis_3">
    <g id="xtick_7">
     <g id="line2d_26">
      <path d="M 86.363322 343.527216 
L 86.363322 192.327216 
" clip-path="url(#pbbfe157c27)" style="fill: none; stroke: #b0b0b0; stroke-width: 0.8; stroke-linecap: square"/>
     </g>
     <g id="line2d_27">
      <g>
       <use xlink:href="#m6c4dae49cb" x="86.363322" y="343.527216" style="stroke: #000000; stroke-width: 0.8"/>
      </g>
     </g>
     <g id="text_14">
      <!-- 0.60 -->
      <g transform="translate(75.230509 358.125654)scale(0.1 -0.1)">
       <use xlink:href="#DejaVuSans-30"/>
       <use xlink:href="#DejaVuSans-2e" x="63.623047"/>
       <use xlink:href="#DejaVuSans-36" x="95.410156"/>
       <use xlink:href="#DejaVuSans-30" x="159.033203"/>
      </g>
     </g>
    </g>
    <g id="xtick_8">
     <g id="line2d_28">
      <path d="M 208.287376 343.527216 
L 208.287376 192.327216 
" clip-path="url(#pbbfe157c27)" style="fill: none; stroke: #b0b0b0; stroke-width: 0.8; stroke-linecap: square"/>
     </g>
     <g id="line2d_29">
      <g>
       <use xlink:href="#m6c4dae49cb" x="208.287376" y="343.527216" style="stroke: #000000; stroke-width: 0.8"/>
      </g>
     </g>
     <g id="text_15">
      <!-- 0.62 -->
      <g transform="translate(197.154563 358.125654)scale(0.1 -0.1)">
       <use xlink:href="#DejaVuSans-30"/>
       <use xlink:href="#DejaVuSans-2e" x="63.623047"/>
       <use xlink:href="#DejaVuSans-36" x="95.410156"/>
       <use xlink:href="#DejaVuSans-32" x="159.033203"/>
      </g>
     </g>
    </g>
    <g id="xtick_9">
     <g id="line2d_30">
      <path d="M 330.21143 343.527216 
L 330.21143 192.327216 
" clip-path="url(#pbbfe157c27)" style="fill: none; stroke: #b0b0b0; stroke-width: 0.8; stroke-linecap: square"/>
     </g>
     <g id="line2d_31">
      <g>
       <use xlink:href="#m6c4dae49cb" x="330.21143" y="343.527216" style="stroke: #000000; stroke-width: 0.8"/>
      </g>
     </g>
     <g id="text_16">
      <!-- 0.64 -->
      <g transform="translate(319.078618 358.125654)scale(0.1 -0.1)">
       <use xlink:href="#DejaVuSans-30"/>
       <use xlink:href="#DejaVuSans-2e" x="63.623047"/>
       <use xlink:href="#DejaVuSans-36" x="95.410156"/>
       <use xlink:href="#DejaVuSans-34" x="159.033203"/>
      </g>
     </g>
    </g>
    <g id="xtick_10">
     <g id="line2d_32">
      <path d="M 452.135484 343.527216 
L 452.135484 192.327216 
" clip-path="url(#pbbfe157c27)" style="fill: none; stroke: #b0b0b0; stroke-width: 0.8; stroke-linecap: square"/>
     </g>
     <g id="line2d_33">
      <g>
       <use xlink:href="#m6c4dae49cb" x="452.135484" y="343.527216" style="stroke: #000000; stroke-width: 0.8"/>
      </g>
     </g>
     <g id="text_17">
      <!-- 0.66 -->
      <g transform="translate(441.002672 358.125654)scale(0.1 -0.1)">
       <use xlink:href="#DejaVuSans-30"/>
       <use xlink:href="#DejaVuSans-2e" x="63.623047"/>
       <use xlink:href="#DejaVuSans-36" x="95.410156"/>
       <use xlink:href="#DejaVuSans-36" x="159.033203"/>
      </g>
     </g>
    </g>
    <g id="xtick_11">
     <g id="line2d_34">
      <path d="M 574.059539 343.527216 
L 574.059539 192.327216 
" clip-path="url(#pbbfe157c27)" style="fill: none; stroke: #b0b0b0; stroke-width: 0.8; stroke-linecap: square"/>
     </g>
     <g id="line2d_35">
      <g>
       <use xlink:href="#m6c4dae49cb" x="574.059539" y="343.527216" style="stroke: #000000; stroke-width: 0.8"/>
      </g>
     </g>
     <g id="text_18">
      <!-- 0.68 -->
      <g transform="translate(562.926726 358.125654)scale(0.1 -0.1)">
       <use xlink:href="#DejaVuSans-30"/>
       <use xlink:href="#DejaVuSans-2e" x="63.623047"/>
       <use xlink:href="#DejaVuSans-36" x="95.410156"/>
       <use xlink:href="#DejaVuSans-38" x="159.033203"/>
      </g>
     </g>
    </g>
    <g id="xtick_12">
     <g id="line2d_36">
      <path d="M 695.983593 343.527216 
L 695.983593 192.327216 
" clip-path="url(#pbbfe157c27)" style="fill: none; stroke: #b0b0b0; stroke-width: 0.8; stroke-linecap: square"/>
     </g>
     <g id="line2d_37">
      <g>
       <use xlink:href="#m6c4dae49cb" x="695.983593" y="343.527216" style="stroke: #000000; stroke-width: 0.8"/>
      </g>
     </g>
     <g id="text_19">
      <!-- 0.70 -->
      <g transform="translate(684.85078 358.125654)scale(0.1 -0.1)">
       <use xlink:href="#DejaVuSans-30"/>
       <use xlink:href="#DejaVuSans-2e" x="63.623047"/>
       <use xlink:href="#DejaVuSans-37" x="95.410156"/>
       <use xlink:href="#DejaVuSans-30" x="159.033203"/>
      </g>
     </g>
    </g>
   </g>
   <g id="matplotlib.axis_4">
    <g id="ytick_7">
     <g id="line2d_38">
      <path d="M 55.778125 319.872162 
L 725.378125 319.872162 
" clip-path="url(#pbbfe157c27)" style="fill: none; stroke: #b0b0b0; stroke-width: 0.8; stroke-linecap: square"/>
     </g>
     <g id="line2d_39">
      <g>
       <use xlink:href="#m21ecce3f85" x="55.778125" y="319.872162" style="stroke: #000000; stroke-width: 0.8"/>
      </g>
     </g>
     <g id="text_20">
      <!-- $\mathdefault{10^{-18}}$ -->
      <g transform="translate(20.878125 323.67138)scale(0.1 -0.1)">
       <use xlink:href="#DejaVuSans-31" transform="translate(0 0.765625)"/>
       <use xlink:href="#DejaVuSans-30" transform="translate(63.623047 0.765625)"/>
       <use xlink:href="#DejaVuSans-2212" transform="translate(128.203125 39.046875)scale(0.7)"/>
       <use xlink:href="#DejaVuSans-31" transform="translate(186.855469 39.046875)scale(0.7)"/>
       <use xlink:href="#DejaVuSans-38" transform="translate(231.391602 39.046875)scale(0.7)"/>
      </g>
     </g>
    </g>
    <g id="ytick_8">
     <g id="line2d_40">
      <path d="M 55.778125 275.344979 
L 725.378125 275.344979 
" clip-path="url(#pbbfe157c27)" style="fill: none; stroke: #b0b0b0; stroke-width: 0.8; stroke-linecap: square"/>
     </g>
     <g id="line2d_41">
      <g>
       <use xlink:href="#m21ecce3f85" x="55.778125" y="275.344979" style="stroke: #000000; stroke-width: 0.8"/>
      </g>
     </g>
     <g id="text_21">
      <!-- $\mathdefault{10^{-16}}$ -->
      <g transform="translate(20.878125 279.144198)scale(0.1 -0.1)">
       <use xlink:href="#DejaVuSans-31" transform="translate(0 0.765625)"/>
       <use xlink:href="#DejaVuSans-30" transform="translate(63.623047 0.765625)"/>
       <use xlink:href="#DejaVuSans-2212" transform="translate(128.203125 39.046875)scale(0.7)"/>
       <use xlink:href="#DejaVuSans-31" transform="translate(186.855469 39.046875)scale(0.7)"/>
       <use xlink:href="#DejaVuSans-36" transform="translate(231.391602 39.046875)scale(0.7)"/>
      </g>
     </g>
    </g>
    <g id="ytick_9">
     <g id="line2d_42">
      <path d="M 55.778125 230.817796 
L 725.378125 230.817796 
" clip-path="url(#pbbfe157c27)" style="fill: none; stroke: #b0b0b0; stroke-width: 0.8; stroke-linecap: square"/>
     </g>
     <g id="line2d_43">
      <g>
       <use xlink:href="#m21ecce3f85" x="55.778125" y="230.817796" style="stroke: #000000; stroke-width: 0.8"/>
      </g>
     </g>
     <g id="text_22">
      <!-- $\mathdefault{10^{-14}}$ -->
      <g transform="translate(20.878125 234.617015)scale(0.1 -0.1)">
       <use xlink:href="#DejaVuSans-31" transform="translate(0 0.684375)"/>
       <use xlink:href="#DejaVuSans-30" transform="translate(63.623047 0.684375)"/>
       <use xlink:href="#DejaVuSans-2212" transform="translate(128.203125 38.965625)scale(0.7)"/>
       <use xlink:href="#DejaVuSans-31" transform="translate(186.855469 38.965625)scale(0.7)"/>
       <use xlink:href="#DejaVuSans-34" transform="translate(231.391602 38.965625)scale(0.7)"/>
      </g>
     </g>
    </g>
    <g id="text_23">
     <!-- error(rate) -->
     <g transform="translate(14.798438 294.087372)rotate(-90)scale(0.1 -0.1)">
      <defs>
       <path id="DejaVuSans-65" d="M 3597 1894 
L 3597 1613 
L 953 1613 
Q 991 1019 1311 708 
Q 1631 397 2203 397 
Q 2534 397 2845 478 
Q 3156 559 3463 722 
L 3463 178 
Q 3153 47 2828 -22 
Q 2503 -91 2169 -91 
Q 1331 -91 842 396 
Q 353 884 353 1716 
Q 353 2575 817 3079 
Q 1281 3584 2069 3584 
Q 2775 3584 3186 3129 
Q 3597 2675 3597 1894 
z
M 3022 2063 
Q 3016 2534 2758 2815 
Q 2500 3097 2075 3097 
Q 1594 3097 1305 2825 
Q 1016 2553 972 2059 
L 3022 2063 
z
" transform="scale(0.015625)"/>
       <path id="DejaVuSans-72" d="M 2631 2963 
Q 2534 3019 2420 3045 
Q 2306 3072 2169 3072 
Q 1681 3072 1420 2755 
Q 1159 2438 1159 1844 
L 1159 0 
L 581 0 
L 581 3500 
L 1159 3500 
L 1159 2956 
Q 1341 3275 1631 3429 
Q 1922 3584 2338 3584 
Q 2397 3584 2469 3576 
Q 2541 3569 2628 3553 
L 2631 2963 
z
" transform="scale(0.015625)"/>
       <path id="DejaVuSans-6f" d="M 1959 3097 
Q 1497 3097 1228 2736 
Q 959 2375 959 1747 
Q 959 1119 1226 758 
Q 1494 397 1959 397 
Q 2419 397 2687 759 
Q 2956 1122 2956 1747 
Q 2956 2369 2687 2733 
Q 2419 3097 1959 3097 
z
M 1959 3584 
Q 2709 3584 3137 3096 
Q 3566 2609 3566 1747 
Q 3566 888 3137 398 
Q 2709 -91 1959 -91 
Q 1206 -91 779 398 
Q 353 888 353 1747 
Q 353 2609 779 3096 
Q 1206 3584 1959 3584 
z
" transform="scale(0.015625)"/>
       <path id="DejaVuSans-28" d="M 1984 4856 
Q 1566 4138 1362 3434 
Q 1159 2731 1159 2009 
Q 1159 1288 1364 580 
Q 1569 -128 1984 -844 
L 1484 -844 
Q 1016 -109 783 600 
Q 550 1309 550 2009 
Q 550 2706 781 3412 
Q 1013 4119 1484 4856 
L 1984 4856 
z
" transform="scale(0.015625)"/>
       <path id="DejaVuSans-29" d="M 513 4856 
L 1013 4856 
Q 1481 4119 1714 3412 
Q 1947 2706 1947 2009 
Q 1947 1309 1714 600 
Q 1481 -109 1013 -844 
L 513 -844 
Q 928 -128 1133 580 
Q 1338 1288 1338 2009 
Q 1338 2731 1133 3434 
Q 928 4138 513 4856 
z
" transform="scale(0.015625)"/>
      </defs>
      <use xlink:href="#DejaVuSans-65"/>
      <use xlink:href="#DejaVuSans-72" x="61.523438"/>
      <use xlink:href="#DejaVuSans-72" x="100.886719"/>
      <use xlink:href="#DejaVuSans-6f" x="139.75"/>
      <use xlink:href="#DejaVuSans-72" x="200.931641"/>
      <use xlink:href="#DejaVuSans-28" x="242.044922"/>
      <use xlink:href="#DejaVuSans-72" x="281.058594"/>
      <use xlink:href="#DejaVuSans-61" x="322.171875"/>
      <use xlink:href="#DejaVuSans-74" x="383.451172"/>
      <use xlink:href="#DejaVuSans-65" x="422.660156"/>
      <use xlink:href="#DejaVuSans-29" x="484.183594"/>
     </g>
    </g>
   </g>
   <g id="line2d_44">
    <path d="M 86.214489 285.419935 
L 86.958654 270.842491 
L 87.702819 268.949153 
L 88.446985 264.764059 
L 89.19115 278.139424 
L 89.935315 295.396443 
L 90.679481 269.782734 
L 91.423646 262.86884 
L 92.167812 267.622793 
L 92.911977 262.089386 
L 93.656142 262.890132 
L 94.400308 284.570072 
L 95.144473 291.40594 
L 95.888638 273.176302 
L 96.632804 269.175738 
L 97.376969 269.857258 
L 98.121135 281.00896 
L 98.8653 277.185901 
L 99.609465 279.363064 
L 100.353631 277.57659 
L 101.097796 263.297838 
L 101.841961 268.804046 
L 102.586127 281.391833 
L 103.330292 272.309524 
L 104.074458 270.823786 
L 104.818623 303.61267 
L 105.562788 267.999365 
L 106.306954 276.528439 
L 107.051119 267.118789 
L 107.795284 283.513841 
L 108.53945 268.372422 
L 109.283615 270.362258 
L 110.02778 271.836714 
L 110.771946 266.181873 
L 111.516111 263.510218 
L 113.004442 299.599679 
L 113.748607 265.795714 
L 114.492773 278.472247 
L 115.236938 263.604686 
L 116.725269 275.721496 
L 117.469434 270.15104 
L 118.2136 281.650272 
L 118.957765 264.817339 
L 119.70193 285.726828 
L 120.446096 281.587408 
L 121.190261 261.548038 
L 121.934426 265.326216 
L 122.678592 281.075772 
L 123.422757 280.455124 
L 124.166923 265.440781 
L 124.911088 280.272435 
L 125.655253 265.786427 
L 126.399419 267.330646 
L 127.143584 279.921011 
L 127.887749 282.064436 
L 128.631915 257.532004 
L 129.37608 277.951358 
L 130.120245 268.139649 
L 130.864411 261.1088 
L 131.608576 269.301742 
L 132.352742 265.985539 
L 133.841072 275.433099 
L 134.585238 271.037025 
L 136.817734 277.190119 
L 137.561899 272.289261 
L 138.306065 273.271115 
L 139.794395 267.010411 
L 140.538561 272.383339 
L 141.282726 270.418232 
L 142.026891 269.910208 
L 143.515222 323.040273 
L 144.259388 277.335684 
L 145.003553 273.476197 
L 145.747718 272.436141 
L 146.491884 270.107086 
L 147.236049 273.140954 
L 147.980214 270.250671 
L 148.72438 270.524754 
L 149.468545 267.164689 
L 150.21271 275.370907 
L 150.956876 266.31556 
L 151.701041 291.71099 
L 152.445207 268.382179 
L 153.933537 259.886349 
L 154.677703 265.030931 
L 155.421868 268.208931 
L 156.166033 268.324255 
L 156.910199 271.114422 
L 157.654364 269.439588 
L 158.39853 300.137861 
L 159.142695 265.84248 
L 159.88686 264.031445 
L 160.631026 266.357928 
L 161.375191 273.091787 
L 162.119356 270.06366 
L 162.863522 276.032161 
L 163.607687 282.921088 
L 164.351852 274.34175 
L 165.096018 276.937431 
L 165.840183 261.665671 
L 166.584349 285.70978 
L 167.328514 268.095536 
L 168.072679 272.534127 
L 168.816845 285.842552 
L 169.56101 271.627772 
L 170.305175 285.379007 
L 171.049341 279.246602 
L 171.793506 275.575331 
L 172.537672 278.070669 
L 173.281837 266.345435 
L 174.026002 269.701528 
L 174.770168 271.151703 
L 175.514333 263.78301 
L 176.258498 296.656044 
L 177.002664 266.936028 
L 177.746829 267.585932 
L 178.490995 284.710301 
L 179.23516 266.782108 
L 179.979325 271.551455 
L 180.723491 284.763167 
L 181.467656 265.427391 
L 182.211821 272.42851 
L 182.955987 272.590896 
L 183.700152 283.101459 
L 184.444317 279.578805 
L 185.188483 284.249145 
L 186.676814 276.089705 
L 187.420979 294.452408 
L 188.165144 274.275075 
L 188.90931 268.337631 
L 189.653475 282.900012 
L 190.39764 270.014382 
L 191.141806 267.652766 
L 192.630137 278.30471 
L 193.374302 270.520225 
L 194.118467 272.210406 
L 194.862633 264.849178 
L 195.606798 265.26039 
L 196.350963 284.928563 
L 197.095129 268.2575 
L 197.839294 270.392528 
L 198.58346 281.507242 
L 199.327625 282.913345 
L 200.07179 299.890178 
L 200.815956 267.734244 
L 201.560121 267.248935 
L 202.304286 271.987131 
L 203.048452 273.822298 
L 203.792617 261.257883 
L 204.536782 264.256511 
L 205.280948 312.830399 
L 206.025113 291.837395 
L 206.769279 291.727873 
L 207.513444 296.857902 
L 208.257609 303.013817 
L 209.001775 263.404492 
L 209.74594 277.907635 
L 210.490105 277.547849 
L 211.234271 269.979873 
L 211.978436 277.508671 
L 212.722602 274.202202 
L 213.466767 280.470637 
L 214.210932 279.849427 
L 214.955098 309.822518 
L 215.699263 275.391179 
L 216.443428 270.01387 
L 217.187594 274.610562 
L 217.931759 267.446983 
L 218.675925 276.516269 
L 219.42009 266.562407 
L 220.164255 271.590396 
L 220.908421 260.332913 
L 221.652586 264.933735 
L 222.396751 285.890072 
L 223.140917 264.932195 
L 223.885082 272.51019 
L 224.629247 278.83906 
L 225.373413 277.496666 
L 226.117578 282.46005 
L 226.861744 268.404805 
L 227.605909 268.517439 
L 228.350074 271.729027 
L 229.09424 265.624292 
L 229.838405 272.78159 
L 230.58257 272.412753 
L 231.326736 277.594822 
L 232.070901 288.276291 
L 232.815067 265.338774 
L 233.559232 272.595817 
L 234.303397 274.264907 
L 235.047563 269.008687 
L 235.791728 265.111601 
L 236.535893 279.363361 
L 237.280059 265.627734 
L 238.024224 267.875443 
L 238.76839 283.273624 
L 239.512555 271.577064 
L 240.25672 272.36081 
L 241.000886 264.649787 
L 241.745051 286.255792 
L 242.489216 266.134555 
L 243.233382 275.358472 
L 243.977547 272.113375 
L 244.721712 305.553713 
L 245.465878 275.700388 
L 246.210043 291.049286 
L 247.698374 262.049812 
L 248.442539 265.451194 
L 249.186705 277.802657 
L 249.93087 277.487513 
L 250.675035 266.142208 
L 251.419201 267.879343 
L 252.163366 273.073542 
L 252.907532 269.201853 
L 253.651697 260.736629 
L 254.395862 276.077512 
L 255.140028 286.754387 
L 255.884193 273.043079 
L 256.628358 293.58917 
L 257.372524 266.483816 
L 258.116689 267.859775 
L 258.860854 273.672952 
L 259.60502 286.571472 
L 260.349185 269.292974 
L 261.093351 288.222248 
L 261.837516 266.981402 
L 262.581681 274.957543 
L 263.325847 262.302154 
L 264.070012 276.238801 
L 264.814177 276.475077 
L 265.558343 278.490074 
L 266.302508 280.848687 
L 267.046674 264.58582 
L 267.790839 273.790636 
L 268.535004 262.53152 
L 269.27917 271.411381 
L 270.023335 283.430507 
L 270.7675 271.654996 
L 271.511666 265.35387 
L 272.999997 285.281271 
L 274.488327 270.593872 
L 275.232493 291.926637 
L 275.976658 274.72084 
L 276.720823 272.658656 
L 277.464989 272.265693 
L 278.209154 271.160399 
L 279.697485 279.157993 
L 280.44165 276.733208 
L 281.185816 261.459833 
L 282.674146 278.134655 
L 283.418312 276.261053 
L 284.162477 290.815816 
L 284.906642 275.153867 
L 285.650808 272.848145 
L 286.394973 264.945304 
L 287.139139 260.690586 
L 287.883304 261.780888 
L 288.627469 281.587761 
L 289.371635 272.049371 
L 290.1158 264.16928 
L 290.859965 264.624521 
L 291.604131 280.223922 
L 292.348296 260.82807 
L 293.092462 265.939081 
L 293.836627 263.671295 
L 294.580792 267.410093 
L 295.324958 286.269021 
L 296.069123 285.312174 
L 296.813288 267.641963 
L 297.557454 266.619437 
L 298.301619 290.8432 
L 299.045784 260.735367 
L 299.78995 279.76583 
L 300.534115 274.802571 
L 301.278281 296.447196 
L 302.022446 277.967665 
L 302.766611 278.521019 
L 303.510777 265.548563 
L 304.254942 272.471314 
L 304.999107 267.480532 
L 305.743273 280.601835 
L 306.487438 269.576194 
L 307.231604 266.389262 
L 307.975769 284.919589 
L 308.719934 272.920988 
L 309.4641 288.055074 
L 310.208265 308.429789 
L 310.95243 265.712445 
L 311.696596 263.561768 
L 312.440761 273.74989 
L 313.184927 270.706545 
L 313.929092 263.286085 
L 314.673257 276.011283 
L 315.417423 264.066748 
L 316.161588 292.994588 
L 316.905753 269.641478 
L 317.649919 266.151665 
L 318.394084 269.770245 
L 319.138249 272.711957 
L 319.882415 270.954128 
L 320.62658 263.449801 
L 321.370746 261.577567 
L 322.114911 271.69725 
L 322.859076 258.716072 
L 323.603242 265.816604 
L 324.347407 279.425669 
L 325.091572 290.721704 
L 325.835738 271.788505 
L 326.579903 265.121632 
L 327.324069 280.067208 
L 328.068234 265.700941 
L 328.812399 270.806984 
L 329.556565 265.047857 
L 330.30073 336.654489 
L 331.044895 285.6032 
L 331.789061 263.646869 
L 332.533226 290.271471 
L 333.277392 264.975492 
L 334.021557 290.785352 
L 334.765722 281.330383 
L 335.509888 268.313439 
L 336.254053 280.686592 
L 336.998218 261.570333 
L 337.742384 299.780803 
L 338.486549 278.483101 
L 339.230714 267.850059 
L 339.97488 262.352045 
L 340.719045 271.217184 
L 341.463211 275.128191 
L 342.207376 260.704419 
L 342.951541 278.211255 
L 343.695707 261.398598 
L 344.439872 276.930739 
L 345.184037 271.754821 
L 345.928203 290.09887 
L 347.416534 259.946514 
L 348.160699 261.589053 
L 348.904864 260.42343 
L 349.64903 282.850885 
L 350.393195 267.702381 
L 351.13736 261.626783 
L 351.881526 280.930153 
L 353.369856 267.069608 
L 354.114022 258.795626 
L 354.858187 275.916006 
L 355.602353 268.693132 
L 356.346518 267.697904 
L 357.090683 261.366053 
L 357.834849 259.353077 
L 358.579014 268.471353 
L 359.323179 269.179391 
L 360.067345 260.272418 
L 360.81151 260.583662 
L 361.555676 266.436107 
L 362.299841 259.960173 
L 363.044006 264.389113 
L 363.788172 267.124012 
L 364.532337 266.596601 
L 365.276502 276.253385 
L 366.020668 269.268684 
L 366.764833 264.169005 
L 367.508999 261.409063 
L 368.253164 269.587148 
L 368.997329 260.750217 
L 369.741495 266.97663 
L 370.48566 278.009034 
L 371.229825 261.919777 
L 371.973991 285.488241 
L 372.718156 262.407889 
L 373.462321 274.307086 
L 374.206487 276.827506 
L 374.950652 268.077241 
L 375.694818 265.558078 
L 376.438983 262.189026 
L 377.183148 279.976692 
L 377.927314 258.580956 
L 378.671479 270.930524 
L 379.415644 268.182347 
L 380.15981 281.372267 
L 380.903975 264.346353 
L 381.648141 266.06074 
L 382.392306 275.312 
L 383.136471 274.214878 
L 383.880637 260.351436 
L 384.624802 263.594239 
L 385.368967 269.237372 
L 386.113133 265.041855 
L 386.857298 268.238485 
L 387.601464 266.051651 
L 388.345629 270.492236 
L 389.089794 264.888895 
L 389.83396 262.734579 
L 390.578125 262.511469 
L 391.32229 255.139772 
L 392.810621 262.474035 
L 393.554786 261.088284 
L 394.298952 268.681325 
L 395.043117 266.655046 
L 395.787283 266.580512 
L 396.531448 267.757138 
L 397.275613 268.051658 
L 398.019779 263.211914 
L 398.763944 264.391757 
L 399.508109 258.003033 
L 400.252275 268.060382 
L 400.99644 265.803579 
L 401.740606 269.863633 
L 402.484771 262.599127 
L 403.228936 266.300537 
L 403.973102 262.730892 
L 404.717267 260.798271 
L 405.461432 296.111178 
L 406.205598 258.924187 
L 406.949763 270.976256 
L 407.693929 258.354217 
L 408.438094 285.57309 
L 409.182259 269.20402 
L 409.926425 273.574672 
L 411.414755 261.190169 
L 412.158921 266.378894 
L 412.903086 264.73185 
L 413.647251 267.73301 
L 414.391417 283.484185 
L 415.135582 257.380423 
L 415.879748 250.545513 
L 416.623913 252.644606 
L 417.368078 317.816634 
L 418.112244 255.21051 
L 418.856409 257.350144 
L 419.600574 262.740589 
L 420.34474 252.055786 
L 421.088905 277.68674 
L 421.833071 258.717436 
L 422.577236 256.434944 
L 423.321401 259.283785 
L 424.065567 259.369514 
L 424.809732 257.507141 
L 425.553897 286.119989 
L 426.298063 269.670865 
L 427.042228 277.729887 
L 427.786394 254.239094 
L 428.530559 299.175779 
L 429.274724 257.421599 
L 430.01889 280.624552 
L 430.763055 259.327692 
L 431.50722 254.838151 
L 432.251386 263.186224 
L 432.995551 257.525595 
L 433.739716 254.761784 
L 434.483882 253.581079 
L 435.228047 264.547002 
L 435.972213 256.645125 
L 436.716378 265.883576 
L 437.460543 298.132129 
L 438.204709 258.251651 
L 438.948874 256.780767 
L 439.693039 249.964278 
L 440.437205 256.563738 
L 441.18137 261.824281 
L 441.925536 260.200211 
L 442.669701 286.741704 
L 443.413866 248.126028 
L 444.158032 260.943924 
L 444.902197 252.953454 
L 445.646362 251.818058 
L 446.390528 272.098751 
L 447.134693 253.702393 
L 447.878858 249.84664 
L 448.623024 257.601873 
L 449.367189 278.002319 
L 450.111355 258.329563 
L 450.85552 250.650473 
L 451.599685 272.255856 
L 452.343851 260.863171 
L 453.088016 262.959763 
L 453.832181 270.159624 
L 454.576347 252.894596 
L 455.320512 256.603511 
L 456.064678 250.827126 
L 456.808843 261.868254 
L 457.553008 250.170327 
L 458.297174 264.093752 
L 459.041339 255.867186 
L 459.785504 253.405929 
L 460.52967 251.841701 
L 461.273835 248.288856 
L 462.018001 255.505324 
L 462.762166 252.68058 
L 463.506331 255.350168 
L 464.250497 251.929653 
L 464.994662 268.60278 
L 465.738827 260.955733 
L 466.482993 240.742341 
L 467.227158 254.148867 
L 467.971323 262.554713 
L 468.715489 252.124589 
L 469.459654 272.019706 
L 470.20382 250.485502 
L 470.947985 247.151733 
L 471.69215 252.743665 
L 472.436316 246.782752 
L 473.180481 246.497018 
L 473.924646 250.982326 
L 474.668812 250.663609 
L 475.412977 253.321813 
L 476.157143 244.024426 
L 476.901308 259.462033 
L 477.645473 245.200257 
L 478.389639 246.785447 
L 479.133804 248.836583 
L 479.877969 276.505016 
L 480.622135 242.972839 
L 481.3663 243.98655 
L 482.110466 236.352681 
L 482.854631 248.748013 
L 483.598796 241.413276 
L 484.342962 240.488294 
L 485.087127 237.848597 
L 485.831292 237.966047 
L 486.575458 247.72958 
L 487.319623 232.755305 
L 488.063788 265.080008 
L 488.807954 256.759896 
L 489.552119 222.692027 
L 491.04045 234.155782 
L 492.528781 199.199943 
L 493.272946 215.604244 
L 494.017111 225.487137 
L 494.761277 228.485725 
L 495.505442 237.292438 
L 496.249608 227.94052 
L 497.737938 239.566579 
L 498.482104 255.986372 
L 499.226269 253.914739 
L 499.970434 229.127439 
L 500.7146 250.235096 
L 501.458765 239.240265 
L 502.202931 240.090994 
L 502.947096 246.092765 
L 503.691261 247.889858 
L 504.435427 241.125695 
L 505.179592 245.678284 
L 505.923757 273.343261 
L 506.667923 246.551183 
L 507.412088 269.739568 
L 508.156253 251.613078 
L 508.900419 260.282558 
L 509.644584 242.25595 
L 510.38875 285.568002 
L 511.132915 247.851941 
L 511.87708 242.652587 
L 512.621246 273.144857 
L 513.365411 250.33013 
L 514.109576 257.814006 
L 514.853742 259.726902 
L 515.597907 255.464003 
L 516.342073 249.344867 
L 517.086238 302.338702 
L 517.830403 253.391405 
L 518.574569 245.198682 
L 519.318734 266.81734 
L 520.062899 266.601921 
L 520.807065 249.424481 
L 521.55123 256.287235 
L 522.295396 252.623278 
L 523.039561 251.986046 
L 523.783726 251.522065 
L 524.527892 257.28861 
L 525.272057 264.356155 
L 526.016222 250.294553 
L 526.760388 249.067555 
L 527.504553 264.501351 
L 528.248718 262.056231 
L 528.992884 260.04681 
L 529.737049 250.775578 
L 530.481215 251.864931 
L 531.22538 252.279887 
L 531.969545 271.751799 
L 532.713711 257.027201 
L 533.457876 263.592034 
L 534.202041 281.296941 
L 534.946207 262.000176 
L 535.690372 251.793208 
L 536.434538 258.445185 
L 537.178703 251.078358 
L 537.922868 258.323788 
L 538.667034 258.921205 
L 539.411199 278.20463 
L 540.155364 261.293435 
L 540.89953 252.635191 
L 541.643695 268.191014 
L 542.38786 273.749735 
L 543.876191 251.86242 
L 544.620357 254.670937 
L 545.364522 256.545893 
L 546.108687 253.926506 
L 546.852853 252.974479 
L 547.597018 268.954037 
L 548.341183 275.718789 
L 549.085349 257.477437 
L 549.829514 252.22301 
L 550.57368 255.596944 
L 551.317845 254.855505 
L 552.06201 261.960309 
L 552.806176 257.177889 
L 553.550341 257.721125 
L 554.294506 260.762368 
L 555.038672 257.105923 
L 555.782837 264.957813 
L 556.527003 261.350057 
L 557.271168 253.242383 
L 558.015333 268.640492 
L 558.759499 268.740582 
L 559.503664 268.000558 
L 560.247829 303.371074 
L 560.991995 254.718826 
L 561.73616 256.535643 
L 562.480325 254.576066 
L 563.224491 294.579382 
L 563.968656 259.557417 
L 564.712822 260.760923 
L 566.201152 253.425936 
L 566.945318 260.169479 
L 567.689483 268.795147 
L 568.433648 254.462643 
L 569.177814 256.094672 
L 569.921979 276.893996 
L 570.666145 255.187156 
L 571.41031 262.889529 
L 572.154475 281.277916 
L 572.898641 260.451508 
L 573.642806 271.812982 
L 574.386971 270.834163 
L 575.131137 265.242756 
L 575.875302 269.417496 
L 576.619468 271.697644 
L 577.363633 333.97252 
L 578.107798 261.940052 
L 578.851964 292.726546 
L 579.596129 253.274367 
L 580.340294 269.531921 
L 581.08446 264.600346 
L 581.828625 255.642803 
L 582.57279 265.195263 
L 584.061121 271.049535 
L 584.805287 256.961467 
L 585.549452 277.412019 
L 586.293617 267.414687 
L 587.037783 259.386098 
L 587.781948 287.828281 
L 588.526113 283.50598 
L 589.270279 266.342194 
L 590.014444 275.132682 
L 590.75861 259.811698 
L 591.502775 275.562384 
L 592.24694 258.201072 
L 592.991106 287.759911 
L 593.735271 274.364148 
L 594.479436 267.844616 
L 595.223602 264.782143 
L 595.967767 263.797751 
L 596.711933 266.393237 
L 597.456098 262.90461 
L 598.200263 289.434001 
L 598.944429 264.985506 
L 599.688594 276.857259 
L 600.432759 267.411445 
L 601.176925 264.254964 
L 601.92109 267.821486 
L 602.665255 276.821149 
L 603.409421 259.769389 
L 604.153586 260.449058 
L 604.897752 275.228859 
L 605.641917 267.521716 
L 606.386082 262.276764 
L 607.130248 287.35056 
L 607.874413 275.550425 
L 608.618578 259.514268 
L 609.362744 276.344293 
L 610.106909 263.666315 
L 610.851075 259.913229 
L 611.59524 277.18525 
L 612.339405 282.806891 
L 613.083571 260.458433 
L 613.827736 257.097392 
L 614.571901 257.238557 
L 615.316067 263.480113 
L 616.060232 274.155246 
L 616.804398 272.867315 
L 617.548563 261.951121 
L 618.292728 261.837538 
L 619.036894 263.031392 
L 620.525224 273.269227 
L 621.26939 293.421331 
L 622.013555 285.245473 
L 622.75772 263.791137 
L 623.501886 268.572634 
L 624.246051 263.810874 
L 624.990217 269.008763 
L 625.734382 271.793082 
L 626.478547 276.636278 
L 627.222713 295.215346 
L 627.966878 266.946107 
L 628.711043 275.133215 
L 629.455209 267.959709 
L 630.199374 265.18788 
L 630.94354 286.73158 
L 631.687705 261.76685 
L 632.43187 261.963757 
L 633.176036 267.133413 
L 633.920201 266.73573 
L 635.408532 278.527665 
L 636.152697 270.15771 
L 636.896862 267.904053 
L 637.641028 269.231182 
L 638.385193 290.727311 
L 639.129359 272.36084 
L 639.873524 271.293801 
L 640.617689 289.158925 
L 641.361855 262.601474 
L 642.10602 289.450298 
L 642.850185 298.703745 
L 643.594351 287.306737 
L 644.338516 285.16632 
L 645.082682 276.388773 
L 645.826847 288.361495 
L 646.571012 261.125289 
L 647.315178 268.22474 
L 648.059343 273.08184 
L 648.803508 282.753549 
L 649.547674 271.146899 
L 650.291839 270.407581 
L 651.036005 288.804291 
L 651.78017 260.482961 
L 652.524335 272.271561 
L 653.268501 268.010883 
L 654.756831 262.454624 
L 655.500997 275.256558 
L 656.245162 277.170119 
L 657.733493 266.393506 
L 658.477658 297.345495 
L 659.221824 265.203474 
L 659.965989 269.605013 
L 660.710154 267.481202 
L 661.45432 283.495734 
L 662.198485 259.56742 
L 662.94265 262.086991 
L 663.686816 296.158443 
L 664.430981 273.236606 
L 665.175147 276.282126 
L 665.919312 271.6387 
L 666.663477 274.787701 
L 667.407643 274.623073 
L 668.151808 281.187258 
L 668.895973 285.880958 
L 669.640139 282.561311 
L 670.384304 307.58031 
L 671.12847 276.820641 
L 671.872635 268.551472 
L 672.6168 269.816746 
L 673.360966 279.656677 
L 674.105131 269.240581 
L 674.849296 302.785289 
L 675.593462 272.780623 
L 676.337627 274.734487 
L 677.081792 267.239452 
L 677.825958 286.785693 
L 678.570123 284.183561 
L 679.314289 275.43758 
L 680.058454 261.628703 
L 680.802619 268.718522 
L 681.546785 266.554338 
L 682.29095 268.882822 
L 683.035115 285.873046 
L 683.779281 276.34587 
L 685.267612 266.105336 
L 686.011777 269.997064 
L 686.755942 264.999571 
L 687.500108 275.240563 
L 688.244273 266.655051 
L 688.988438 272.257525 
L 689.732604 264.051173 
L 690.476769 266.429599 
L 691.220935 272.670958 
L 691.9651 271.811408 
L 692.709265 264.105247 
L 693.453431 266.512173 
L 694.197596 268.003879 
L 694.941761 278.42644 
L 694.941761 278.42644 
" clip-path="url(#pbbfe157c27)" style="fill: none; stroke: #1f77b4; stroke-width: 1.5; stroke-linecap: square"/>
   </g>
   <g id="patch_8">
    <path d="M 55.778125 343.527216 
L 55.778125 192.327216 
" style="fill: none; stroke: #000000; stroke-width: 0.8; stroke-linejoin: miter; stroke-linecap: square"/>
   </g>
   <g id="patch_9">
    <path d="M 725.378125 343.527216 
L 725.378125 192.327216 
" style="fill: none; stroke: #000000; stroke-width: 0.8; stroke-linejoin: miter; stroke-linecap: square"/>
   </g>
   <g id="patch_10">
    <path d="M 55.778125 343.527216 
L 725.378125 343.527216 
" style="fill: none; stroke: #000000; stroke-width: 0.8; stroke-linejoin: miter; stroke-linecap: square"/>
   </g>
   <g id="patch_11">
    <path d="M 55.778125 192.327216 
L 725.378125 192.327216 
" style="fill: none; stroke: #000000; stroke-width: 0.8; stroke-linejoin: miter; stroke-linecap: square"/>
   </g>
  </g>
 </g>
 <defs>
  <clipPath id="p7c1d6668c1">
   <rect x="55.778125" y="10.887216" width="669.6" height="151.2"/>
  </clipPath>
  <clipPath id="pbbfe157c27">
   <rect x="55.778125" y="192.327216" width="669.6" height="151.2"/>
  </clipPath>
 </defs>
</svg>
